<svg xmlns="http://www.w3.org/2000/svg" width="12.6" height="12.018" viewBox="0 0 12.6 12.018">
  <defs>
    <style>
      .cls-1 {
        fill: #f66;
      }
    </style>
  </defs>
  <g id="lychee-icon_r" transform="translate(-0.2 0)">
    <path id="パス_22" data-name="パス 22" class="cls-1" d="M7.5,1.9a3.6,3.6,0,0,1,1.9.8h.1l1.3-1.3h-.1A6.1,6.1,0,0,0,7.5,0H7.4V1.9Z"/>
    <path id="パス_23" data-name="パス 23" class="cls-1" d="M9.4,9a4.6,4.6,0,0,1-1.9.8H7.4v1.9h.1a6.1,6.1,0,0,0,3.2-1.3h.1L9.5,9Z"/>
    <path id="パス_24" data-name="パス 24" class="cls-1" d="M12.8,6.4H10.9a3.6,3.6,0,0,1-.8,1.9h0l1.3,1.3V9.5a5.8,5.8,0,0,0,1.4-3.1Z"/>
    <path id="パス_25" data-name="パス 25" class="cls-1" d="M10.1,3.4a3.6,3.6,0,0,1,.8,1.9h1.9a6.1,6.1,0,0,0-1.3-3.2h-.1L10.1,3.3Z"/>
    <path id="パス_26" data-name="パス 26" class="cls-1" d="M6.4,0A5.4,5.4,0,0,0,3.3,1.3l-.9.8h0A6.1,6.1,0,0,0,1.1,5.3V6.4l.3,1.3h0a3.8,3.8,0,0,1,2.1.1l-.2-.4a3.5,3.5,0,0,1-.3-1V5.3a4.6,4.6,0,0,1,.8-1.9,2.3,2.3,0,0,1,.7-.7,3.6,3.6,0,0,1,1.9-.8h.1V0Z"/>
    <path id="パス_27" data-name="パス 27" class="cls-1" d="M3.9,8.7a4.3,4.3,0,0,0-3.7.2,4.1,4.1,0,0,0,2.5,2.8,4,4,0,0,0,3.7-.3A4,4,0,0,0,3.9,8.7Z"/>
  </g>
</svg>
